<svg width="16" height="21" viewBox="0 0 16 21" fill="none" xmlns="http://www.w3.org/2000/svg">
<path fill-rule="evenodd" clip-rule="evenodd" d="M12.931 5.9055H16.0001V20.9999H0.160156V5.9055H3.229C3.22905 3.14304 5.39887 0.899902 8.07999 0.899902C10.7611 0.899902 12.9309 3.14304 12.931 5.9055ZM12.832 5.9055C12.832 4.00423 11.7842 2.35558 10.2523 1.54131C11.7573 2.34128 12.795 3.94658 12.831 5.80558C12.8317 5.83881 12.832 5.87212 12.832 5.9055ZM3.823 5.9055C3.82304 3.47515 5.73097 1.50871 8.07999 1.50871C10.429 1.50871 12.3369 3.47515 12.337 5.9055H3.823ZM0.853155 6.6055H15.3071V20.2999H0.853155V6.6055Z" fill="black"/>
</svg>
