<svg width="125" height="125" viewBox="0 0 125 125" fill="none" xmlns="http://www.w3.org/2000/svg">
<path d="M102.862 35.566L85.8651 49.3959L79.0794 41.4492C78.4829 40.7509 77.4356 40.6685 76.7373 41.2649C76.0405 41.8607 75.9581 42.9088 76.5538 43.6056L84.3928 52.7869C84.9782 53.4725 86.004 53.5654 86.7038 52.9963L104.959 38.1436C105.67 37.5642 105.778 36.5191 105.199 35.8074C104.621 35.0958 103.574 34.9881 102.862 35.5675V35.566Z" fill="black"/>
<path d="M90.8635 14.1526C74.9084 14.1481 61.7189 26.5889 60.7926 42.5173H14.9515C9.34914 42.5255 4.61959 46.6853 3.89757 52.2416C3.80843 52.4949 3.78392 52.7653 3.82254 53.0305C3.81066 53.2414 3.80323 53.4539 3.80323 53.6671V98.1295C3.80026 100.73 4.7117 103.248 6.37637 105.246C6.50562 105.494 6.69504 105.705 6.92829 105.86C9.02527 108.045 11.9238 109.28 14.9515 109.279H81.3747C84.4002 109.28 87.295 108.048 89.3905 105.867C89.4797 105.808 89.5621 105.741 89.6394 105.667C89.7627 105.545 89.8674 105.404 89.9469 105.25C91.6145 103.252 92.5267 100.732 92.5237 98.1295V74.3621C108.367 73.4967 120.991 60.3354 120.991 44.28C120.972 27.6482 107.495 14.1712 90.8635 14.1526ZM14.9515 45.8384H60.7777C61.135 52.9889 64.0387 59.7738 68.9629 64.9691C69.6983 65.7476 70.4731 66.4874 71.2857 67.1842L52.6253 83.0115C50.0625 85.1962 46.2919 85.1984 43.7292 83.0153L7.2737 52.1465C8.00389 48.4829 11.2166 45.8444 14.9515 45.8384ZM14.9515 105.958C13.2571 105.959 11.6088 105.408 10.2546 104.388L30.2878 83.8985C30.712 83.4758 30.8761 82.8578 30.7179 82.2799C30.5582 81.7034 30.1014 81.2562 29.5212 81.1107C28.9403 80.9651 28.326 81.1426 27.9138 81.5757L8.0752 101.867C7.44975 100.72 7.12216 99.4354 7.12365 98.1295V56.3709L41.5832 85.5498C45.3842 88.7862 50.974 88.784 54.7728 85.5438L73.9844 69.2507C78.4926 72.3171 83.7577 74.0858 89.2026 74.3629V98.1295C89.2048 99.4398 88.875 100.73 88.2443 101.879L68.2862 81.5734C67.6414 80.9309 66.6 80.9279 65.9515 81.566C65.3023 82.2033 65.2874 83.2448 65.9181 83.9007L86.0612 104.396C84.71 105.411 83.0646 105.96 81.3747 105.958H14.9515ZM90.8635 71.0863C85.1564 71.1093 79.5934 69.2916 75.002 65.9014C74.9322 65.8397 74.8579 65.784 74.7807 65.7335C73.5625 64.8153 72.4237 63.7962 71.3771 62.6879C62.6437 53.4435 61.6082 39.3365 68.8968 28.9147C76.1854 18.4951 89.7931 14.6287 101.472 19.6614C113.15 24.6947 119.685 37.241 117.116 49.6952C114.547 62.1494 103.581 71.0855 90.8635 71.0863Z" fill="black"/>
</svg>
