<svg width="80" height="80" viewBox="0 0 80 80" fill="none" xmlns="http://www.w3.org/2000/svg">
<g clip-path="url(#clip0_5799_6287)">
<path d="M39.9999 0C17.9086 0 0 17.9086 0 39.9999C0 62.0913 17.9086 79.9998 39.9999 79.9998C62.0913 79.9998 79.9998 62.0913 79.9998 39.9999C79.9764 17.9185 62.0815 0.0236049 39.9999 0ZM39.9999 74.2856C21.0644 74.2856 5.71423 58.9354 5.71423 39.9999C5.71423 21.0644 21.0644 5.71423 39.9999 5.71423C58.9354 5.71423 74.2856 21.0644 74.2856 39.9999C74.2652 58.927 58.927 74.2652 39.9999 74.2856Z" fill="black"/>
<path d="M61.9496 23.6943C60.8424 22.6249 59.0871 22.6249 57.98 23.6943L31.4285 50.2456L22.0198 40.837C20.9236 39.7019 19.1148 39.6706 17.9799 40.7668C16.8448 41.863 16.8135 43.6719 17.9097 44.8068C17.9327 44.8305 17.9561 44.854 17.9799 44.8769L29.4085 56.3055C30.5241 57.421 32.3328 57.421 33.4485 56.3055L62.0199 27.7341C63.1161 26.5992 63.0847 24.7905 61.9496 23.6943Z" fill="black"/>
</g>
<defs>
<clipPath id="clip0_5799_6287">
<rect width="80" height="80" fill="white"/>
</clipPath>
</defs>
</svg>
