<svg width="20" height="20" viewBox="0 0 20 20" fill="none" xmlns="http://www.w3.org/2000/svg">
<path fill-rule="evenodd" clip-rule="evenodd" d="M15.0152 12.9232L14.7918 13.2616L19.1387 17.72L19.1414 17.7227C19.4077 17.9917 19.4857 18.2627 19.4738 18.4961C19.4613 18.7411 19.3468 18.9871 19.157 19.1788C18.9672 19.3705 18.7236 19.4862 18.4811 19.4988C18.25 19.5109 17.9817 19.432 17.7154 19.163L13.299 14.7695L12.9639 14.9951C11.7246 15.8297 10.1933 16.3638 8.54887 16.3638C4.19272 16.3638 0.665039 12.7956 0.665039 8.4635C0.665039 4.06577 4.19514 0.5 8.54887 0.5C12.8377 0.5 16.3702 4.06333 16.3702 8.4635C16.3702 10.1245 15.8414 11.6714 15.0152 12.9232ZM8.54887 1.96326C4.96148 1.96326 2.11366 4.83985 2.11366 8.4635C2.11366 12.0205 4.95809 14.9637 8.54887 14.9637C12.0737 14.9637 14.9841 12.024 14.9841 8.4635C14.9841 4.83643 12.0703 1.96326 8.54887 1.96326Z" fill="black"/>
</svg>
