<svg width="18" height="16" viewBox="0 0 18 16" fill="none" xmlns="http://www.w3.org/2000/svg">
<path d="M17.7184 2.52258C17.477 2.21356 17.1181 2.03636 16.7339 2.03636H3.01417L2.89165 1.12815C2.80489 0.485018 2.26602 0 1.63816 0H0.562496C0.251858 0 0 0.260509 0 0.581818C0 0.903127 0.251858 1.16364 0.562496 1.16364H1.63816C1.70791 1.16364 1.76782 1.21753 1.77742 1.28898L3.29577 12.5446C3.38253 13.1877 3.92141 13.6727 4.54926 13.6727H5.15918C5.09674 13.8548 5.06243 14.0506 5.06243 14.2545C5.06243 15.217 5.81944 16 6.74992 16C7.68039 16 8.4374 15.217 8.4374 14.2545C8.4374 14.0506 8.40309 13.8548 8.34066 13.6727H11.3466C11.2842 13.8548 11.2499 14.0506 11.2499 14.2545C11.2499 15.217 12.0069 16 12.9374 16C13.8678 16 14.6249 15.217 14.6249 14.2545C14.6249 14.0506 14.5905 13.8548 14.5281 13.6727H15.7499C16.0605 13.6727 16.3124 13.4122 16.3124 13.0909C16.3124 12.7696 16.0605 12.5091 15.7499 12.5091H4.54929C4.47954 12.5091 4.41964 12.4552 4.41004 12.3837L4.26998 11.3455H15.3477C15.9404 11.3455 16.4608 10.9104 16.5854 10.3106L17.9715 3.61982C18.0521 3.23142 17.9598 2.83149 17.7184 2.52258ZM7.31245 14.2545C7.31245 14.5753 7.0601 14.8364 6.74995 14.8364C6.43981 14.8364 6.18746 14.5753 6.18746 14.2545C6.18746 13.9337 6.43981 13.6727 6.74995 13.6727C7.0601 13.6727 7.31245 13.9337 7.31245 14.2545ZM13.4999 14.2545C13.4999 14.5753 13.2476 14.8364 12.9374 14.8364C12.6273 14.8364 12.3749 14.5753 12.3749 14.2545C12.3749 13.9337 12.6273 13.6727 12.9374 13.6727C13.2476 13.6727 13.4999 13.9337 13.4999 14.2545ZM16.8715 3.37589L15.4854 10.0665C15.4716 10.1333 15.4136 10.1818 15.3477 10.1818H4.11297L3.17114 3.19996H16.7339C16.7896 3.19996 16.8242 3.22935 16.8435 3.254C16.8627 3.27862 16.8832 3.31975 16.8715 3.37589Z" fill="#519AF0"/>
</svg>
