<svg width="16" height="15" viewBox="0 0 16 15" fill="none" xmlns="http://www.w3.org/2000/svg">
<path d="M11.8335 0.003121L9.8738 0C7.67211 0 6.24928 1.44892 6.24928 3.69152V5.39356H4.27885C4.10858 5.39356 3.9707 5.53057 3.9707 5.69957V8.16563C3.9707 8.33463 4.10874 8.47149 4.27885 8.47149H6.24928V14.6941C6.24928 14.8631 6.38716 15 6.55743 15H9.12827C9.29854 15 9.43642 14.863 9.43642 14.6941V8.47149H11.7403C11.9106 8.47149 12.0485 8.33463 12.0485 8.16563L12.0494 5.69957C12.0494 5.61843 12.0169 5.54071 11.9592 5.48329C11.9015 5.42586 11.8228 5.39356 11.7411 5.39356H9.43642V3.95072C9.43642 3.25723 9.60291 2.90518 10.5131 2.90518L11.8332 2.90472C12.0033 2.90472 12.1412 2.7677 12.1412 2.59886V0.308979C12.1412 0.140289 12.0035 0.0034331 11.8335 0.003121Z" fill="black"/>
</svg>
