<svg width="16" height="15" viewBox="0 0 16 15" fill="none" xmlns="http://www.w3.org/2000/svg">
<g clip-path="url(#clip0_6006_282)">
<path d="M10.8898 0H5.22266C2.61481 0 0.5 2.09906 0.5 4.6875V10.3125C0.5 12.9009 2.61481 15 5.22266 15H10.8898C13.4977 15 15.6125 12.9009 15.6125 10.3125V4.6875C15.6125 2.09906 13.4977 0 10.8898 0ZM14.1957 10.3125C14.1957 12.1219 12.7128 13.5938 10.8898 13.5938H5.22266C3.39971 13.5938 1.9168 12.1219 1.9168 10.3125V4.6875C1.9168 2.87812 3.39971 1.40625 5.22266 1.40625H10.8898C12.7128 1.40625 14.1957 2.87812 14.1957 4.6875V10.3125Z" fill="black"/>
<path d="M8.05645 3.75C5.96998 3.75 4.27832 5.42906 4.27832 7.5C4.27832 9.57094 5.96998 11.25 8.05645 11.25C10.1429 11.25 11.8346 9.57094 11.8346 7.5C11.8346 5.42906 10.1429 3.75 8.05645 3.75ZM8.05645 9.84375C6.75488 9.84375 5.69512 8.79187 5.69512 7.5C5.69512 6.20719 6.75488 5.15625 8.05645 5.15625C9.35801 5.15625 10.4178 6.20719 10.4178 7.5C10.4178 8.79187 9.35801 9.84375 8.05645 9.84375Z" fill="black"/>
<path d="M12.1177 3.96843C12.3957 3.96843 12.6211 3.74471 12.6211 3.46874C12.6211 3.19277 12.3957 2.96906 12.1177 2.96906C11.8397 2.96906 11.6143 3.19277 11.6143 3.46874C11.6143 3.74471 11.8397 3.96843 12.1177 3.96843Z" fill="black"/>
</g>
<defs>
<clipPath id="clip0_6006_282">
<rect width="15.1125" height="15" fill="white" transform="translate(0.5)"/>
</clipPath>
</defs>
</svg>
