<svg width="17" height="10" viewBox="0 0 17 10" fill="none" xmlns="http://www.w3.org/2000/svg">
<path d="M14.6235 0H2.34455C1.56327 0 0.927734 0.560711 0.927734 1.25001V8.74999C0.927734 9.43929 1.56327 10 2.34455 10H14.6235C15.4047 10 16.0403 9.43929 16.0403 8.74999V1.25001C16.0403 0.560711 15.4047 0 14.6235 0ZM14.6235 0.833329C14.6876 0.833329 14.7487 0.845074 14.8045 0.865586L8.48401 5.69865L2.1635 0.865586C2.21931 0.845102 2.28035 0.833329 2.34451 0.833329H14.6235ZM14.6235 9.16664H2.34455C2.08397 9.16664 1.87226 8.97989 1.87226 8.74997V1.74601L8.17454 6.56493C8.26356 6.63287 8.37379 6.66666 8.48401 6.66666C8.59423 6.66666 8.70445 6.6329 8.79348 6.56493L15.0958 1.74601V8.74999C15.0957 8.97989 14.884 9.16664 14.6235 9.16664Z" fill="black"/>
</svg>
