<svg width="17" height="17" viewBox="0 0 17 17" fill="none" xmlns="http://www.w3.org/2000/svg">
<path d="M12.6543 10.4427L12.6547 10.4429L15.7136 12.4677C16.165 12.7655 16.301 13.3639 16.0209 13.8257C16.0209 13.8257 16.0209 13.8257 16.0209 13.8257L15.2525 15.0935C15.2523 15.0937 15.2522 15.0939 15.2521 15.094C14.9994 15.5207 14.5902 15.8335 14.1105 15.9669L14.1094 15.9672C13.7129 16.0736 13.3037 16.1267 12.893 16.125M12.6543 10.4427L4.38172 1.3936C4.11883 1.00111 3.59141 0.883292 3.18443 1.12612L3.12042 1.01875L3.12038 1.01877L1.84173 1.78114C1.41228 2.03191 1.09696 2.43803 0.962157 2.91469L0.962155 2.91469L0.961961 2.91539C0.484217 4.64315 0.864487 7.56265 5.14724 11.814L5.14725 11.814C8.55357 15.1947 11.1102 16.1249 12.893 16.125M12.6543 10.4427C12.2122 10.1523 11.6193 10.2476 11.292 10.6624L11.2918 10.6628L10.4007 11.7999L10.4007 11.7999L10.3998 11.8011C10.323 11.9016 10.1828 11.9312 10.0711 11.8696L10.0707 11.8694L9.90125 11.7766L9.90072 11.7763L9.89734 11.7745C9.34526 11.4758 8.656 11.103 7.25964 9.7165C5.86377 8.33053 5.48711 7.6459 5.18629 7.0991L5.18412 7.09516L5.18401 7.09497L5.09107 6.92673L5.09108 6.92673L5.09037 6.92548C5.02814 6.81582 5.05655 6.6772 5.15793 6.6003L5.15793 6.60031L5.15879 6.59964L6.30372 5.71547L6.30405 5.71521C6.72186 5.39029 6.81874 4.80076 6.52582 4.36062L6.52551 4.36016L4.48557 1.32404C4.48555 1.32401 4.48553 1.32398 4.48551 1.32395L12.6543 10.4427ZM12.893 16.125C12.8929 16.125 12.8928 16.125 12.8927 16.125L12.8933 16V16.125C12.8932 16.125 12.8931 16.125 12.893 16.125ZM15.3732 13.4395L15.3731 13.4397L14.6057 14.7094L14.6057 14.7094L14.6049 14.7107C14.4519 14.9706 14.2034 15.162 13.9111 15.2446C12.4241 15.6495 9.76149 15.3342 5.67972 11.2829C1.59779 7.23135 1.281 4.58957 1.6886 3.11484C1.77171 2.82502 1.96456 2.57799 2.22714 2.42565L2.22714 2.42566L2.22836 2.42493L3.50755 1.66324L3.50769 1.66316C3.62746 1.59163 3.78245 1.62661 3.85931 1.74138L3.85938 1.74147L4.96756 3.39284L4.96759 3.39288L5.89744 4.77713C5.89749 4.77719 5.89753 4.77726 5.89757 4.77733C5.97233 4.88975 5.94798 5.04042 5.84071 5.12405C5.84066 5.12408 5.84061 5.12412 5.84057 5.12416L4.69659 6.00739C4.69645 6.0075 4.69631 6.0076 4.69618 6.00771C4.29856 6.3098 4.18456 6.85662 4.42962 7.29093C4.4297 7.29107 4.42979 7.29122 4.42987 7.29136L4.52008 7.45406C4.52012 7.45414 4.52017 7.45421 4.52021 7.45429C4.84708 8.04931 5.2543 8.7882 6.72468 10.2474C8.19524 11.7067 8.93937 12.1108 9.53851 12.4352L9.70269 12.525C9.70283 12.525 9.70296 12.5251 9.7031 12.5252C10.1394 12.7677 10.6892 12.6554 10.9936 12.2607C10.9936 12.2606 10.9937 12.2604 10.9938 12.2603L11.8837 11.1249C11.8837 11.1248 11.8838 11.1248 11.8838 11.1247C11.9681 11.0183 12.1212 10.9934 12.2356 11.0682C12.2357 11.0683 12.2358 11.0683 12.2359 11.0684L15.2943 13.0929L15.2945 13.0931C15.4103 13.1694 15.4445 13.3221 15.3732 13.4395Z" fill="black" stroke="black" stroke-width="0.25"/>
</svg>
