<svg width="16" height="15" viewBox="0 0 16 15" fill="none" xmlns="http://www.w3.org/2000/svg">
<path d="M8.2617 0C4.11974 0 1.91699 2.63449 1.91699 5.50712C1.91699 6.83937 2.66698 8.50069 3.86754 9.02759C4.04984 9.10916 4.14902 9.07447 4.18964 8.90665C4.22553 8.77914 4.38327 8.16505 4.45979 7.87535C4.4834 7.78254 4.47112 7.70191 4.39555 7.61472C3.99694 7.1572 3.68051 6.32372 3.68051 5.54181C3.68051 3.53828 5.28534 1.59288 8.01611 1.59288C10.3775 1.59288 12.0296 3.11545 12.0296 5.29336C12.0296 7.75441 10.7176 9.45699 9.01263 9.45699C8.069 9.45699 7.36624 8.72195 7.58916 7.81254C7.85836 6.72968 8.38638 5.56525 8.38638 4.78428C8.38638 4.08393 7.98777 3.50453 7.17355 3.50453C6.21291 3.50453 5.43364 4.44864 5.43364 5.71619C5.43364 6.52154 5.72079 7.06532 5.72079 7.06532C5.72079 7.06532 4.77055 10.8755 4.59391 11.5871C4.29543 12.7918 4.63453 14.7429 4.66381 14.9107C4.68176 15.0035 4.78661 15.0326 4.84517 14.9566C4.93868 14.8347 6.08729 13.2081 6.40939 12.0324C6.52651 11.604 7.0073 9.86669 7.0073 9.86669C7.32373 10.4339 8.23714 10.9092 9.21005 10.9092C12.1042 10.9092 14.1955 8.38444 14.1955 5.25117C14.1851 2.24729 11.5951 0 8.2617 0Z" fill="black"/>
</svg>
