<svg width="25" height="24" viewBox="0 0 25 24" fill="none" xmlns="http://www.w3.org/2000/svg">
<path d="M0.646484 4.03553L3.82837 7.21751C4.02368 7.41278 4.34033 7.41278 4.53552 7.21751C4.73083 7.02226 4.73083 6.70567 4.53552 6.51042L2.20715 4.18199L18.9999 4.18147C21.7614 4.18147 23.9999 6.42004 23.9999 9.18147V17.1815C23.9999 19.9429 21.7614 22.1815 18.9999 22.1815H9.93718V23.1815H18.9999C22.3136 23.1815 24.9999 20.4952 24.9999 17.1815V9.18147C24.9999 5.86776 22.3136 3.18147 18.9999 3.18147L2.20715 3.18199L4.53552 0.853558C4.73083 0.658291 4.73083 0.341717 4.53552 0.14645C4.34033 -0.0488167 4.02368 -0.0488167 3.82837 0.14645L0.646484 3.32843C0.451172 3.52369 0.451172 3.84028 0.646484 4.03553Z" fill="black"/>
</svg>
