<svg width="12" height="12" viewBox="0 0 12 12" fill="none" xmlns="http://www.w3.org/2000/svg">
<rect width="12" height="12" fill="black"/>
<path fill-rule="evenodd" clip-rule="evenodd" d="M9.64197 2.63291C9.78441 2.48256 9.77799 2.24521 9.62764 2.10277C9.47729 1.96033 9.23994 1.96675 9.09751 2.1171L5.95254 5.43679L2.63291 2.29187C2.48256 2.14944 2.24521 2.15585 2.10277 2.3062C1.96033 2.45655 1.96675 2.6939 2.1171 2.83634L5.43673 5.98125L2.29153 9.30118C2.14909 9.45153 2.15551 9.68888 2.30586 9.83132C2.45621 9.97376 2.69356 9.96734 2.83599 9.81699L5.98119 6.49706L9.30118 9.64231C9.45153 9.78475 9.68888 9.77834 9.83132 9.62799C9.97376 9.47764 9.96734 9.24029 9.81699 9.09785L6.497 5.95259L9.64197 2.63291Z" fill="white"/>
</svg>
