<svg width="15" height="17" viewBox="0 0 15 17" fill="none" xmlns="http://www.w3.org/2000/svg">
<path fill-rule="evenodd" clip-rule="evenodd" d="M11.052 6.15122L10.3129 5.76352V11.4341C10.3129 14.2228 8.00432 16.5 5.15831 16.5C2.31232 16.5 0.00390625 14.2228 0.00390625 11.4341C0.00390625 8.64532 2.31234 6.368 5.15831 6.368L5.16086 6.36844L5.16025 9.03136L5.15831 9.0315C3.81795 9.0315 2.72061 10.1046 2.72061 11.4341C2.72061 12.7634 3.81797 13.8365 5.15831 13.8365C6.49861 13.8365 7.59615 12.7635 7.59615 11.4341L7.59683 0.50014L7.5987 0.5H10.3103L10.3129 0.5004C10.3141 2.56408 12.0192 4.23418 14.1064 4.23418L14.1089 4.23462L14.1083 6.89754L14.1064 6.89768C13.0268 6.89768 11.9863 6.64132 11.052 6.15122Z" fill="black"/>
</svg>
