<svg width="15" height="15" viewBox="0 0 15 15" fill="none" xmlns="http://www.w3.org/2000/svg">
<path fill-rule="evenodd" clip-rule="evenodd" d="M10.1011 1.89652H14.5665C14.8059 1.89652 15 2.08514 15 2.31788C15 2.55062 14.806 2.73928 14.5665 2.73928H13.382L12.4882 13.1035C12.3863 14.189 11.4418 15.0153 10.3205 14.9998H4.85802C3.76749 15.0076 2.84425 14.219 2.71215 13.1667L1.62618 2.73928H0.43354C0.194121 2.73928 0 2.55062 0 2.31788C0 2.08514 0.194121 1.89648 0.43354 1.89648H4.89887V1.22226C4.89811 1.20089 4.89789 1.17947 4.89832 1.1581C4.91071 0.506538 5.46407 -0.011851 6.13442 0.000206131H8.86569C8.88763 -0.000196432 8.90969 8.14931e-06 8.93163 0.000773679C9.60166 0.0241619 10.1252 0.571027 10.1011 1.22226V1.89652ZM9.23416 1.89648V1.22226C9.23709 1.20012 9.23775 1.17774 9.23601 1.15548C9.22254 0.969716 9.05666 0.829855 8.86558 0.843001H6.13431C6.1115 0.841431 6.08847 0.842038 6.06566 0.844902C5.87566 0.868653 5.74151 1.03759 5.76584 1.22226V1.89648H9.23416ZM10.3206 14.157C10.9835 14.1826 11.553 13.703 11.6211 13.0614L12.5096 2.76247H2.49511L3.57913 13.0824C3.64724 13.7124 4.2069 14.1827 4.85813 14.157H10.3206Z" fill="black"/>
</svg>
